HIERARCHY
ROOT Hips
{
  OFFSET 0 0 0
  CHANNELS 6 Xposition Yposition Zposition Zrotation Yrotation Xrotation
  JOINT LeftThigh
  {
    OFFSET 8.409438 0 -5.917753
    CHANNELS 3 Zrotation Yrotation Xrotation
    JOINT LeftLeg
    {
      OFFSET 0 0 -42.358652
      CHANNELS 3 Zrotation Yrotation Xrotation
      JOINT LeftFoot
      {
        OFFSET 0 0 -39.357303
        CHANNELS 3 Zrotation Yrotation Xrotation
      }
    }
  }
  JOINT RightThigh
  {
    OFFSET -8.409438 0 -5.917753
    CHANNELS 3 Zrotation Yrotation Xrotation
    JOINT RightLeg
    {
      OFFSET 0 0 -42.358652
      CHANNELS 3 Zrotation Yrotation Xrotation
      JOINT RightFoot
      {
        OFFSET 0 0 -39.357303
        CHANNELS 3 Zrotation Yrotation Xrotation
      }
    }
  }
  JOINT SpineLow
  {
    OFFSET 0 0 4.719101
    CHANNELS 3 Zrotation Yrotation Xrotation
    JOINT SpineMid
    {
      OFFSET 0 0 12.899191
      CHANNELS 3 Zrotation Yrotation Xrotation
      JOINT Chest
      {
        OFFSET 0 0 12.899191
        CHANNELS 3 Zrotation Yrotation Xrotation
        JOINT LeftShoulder
        {
          OFFSET 7.550562 1.41573 9.438202
          CHANNELS 3 Zrotation Yrotation Xrotation
          JOINT LeftArm
          {
            OFFSET 9.155056 0 4.247191
            CHANNELS 3 Zrotation Yrotation Xrotation
            JOINT LeftForearm
            {
              OFFSET 0 0 25.771955
              CHANNELS 3 Zrotation Yrotation Xrotation
              JOINT LeftHand
              {
                OFFSET 0 0 25.197169
                CHANNELS 3 Zrotation Yrotation Xrotation
              }
            }
          }
        }
        JOINT RightShoulder
        {
          OFFSET -7.550562 1.41573 9.438202
          CHANNELS 3 Zrotation Yrotation Xrotation
          JOINT RightArm
          {
            OFFSET -9.155056 0 4.247191
            CHANNELS 3 Zrotation Yrotation Xrotation
            JOINT RightForearm
            {
              OFFSET 0 0 -25.771955
              CHANNELS 3 Zrotation Yrotation Xrotation
              JOINT RightHand
              {
                OFFSET 0 0 -25.197169
                CHANNELS 3 Zrotation Yrotation Xrotation
              }
            }
          }
        }
        JOINT Neck
        {
          OFFSET 0 0 15.101124
          CHANNELS 3 Zrotation Yrotation Xrotation
          JOINT Head
          {
            OFFSET 0 0 11.325843
            CHANNELS 3 Zrotation Yrotation Xrotation
            End Site
            {
              OFFSET 0 0 14.157303
            }
          }
        }
      }
    }
  }
}
MOTION
Frames: 11
Frame Time: 0.0
0.0  101.685394  0.0  77.328584  -46.250864  -160.545877  27.849787  -42.358331  -14.326634  0.124257  18.539809  61.415177  -5.822513  -12.673519  -11.785456  -23.721023  23.241425  -32.232185  5.434311  -1.361153  30.059124  25.953204  15.29578  8.506071  2.22666  3.155375  3.982648  6.620067  8.221274  11.22111  6.620067  8.221274  11.22111  10.17752  20.055863  13.052201  169.957347  40.049308  165.325552  -50.859302  7.270044  63.587409  30.547728  -35.249969  51.434563  26.647109  -10.10361  20.61286  128.336733  63.446873  37.630072  -12.903797  -26.567595  -105.509112  79.780542  33.167539  30.144685  3.483629  10.493107  2.389279  2.563977  7.883836  1.726567  
0.0  101.685394  0.0  75.539313  -46.077962  -159.046667  31.687075  -42.385011  -18.317682  1.815599  15.189399  65.539516  -7.846974  -12.086488  -12.734109  -23.637726  23.034429  -31.342759  4.757795  -0.899257  29.769895  25.945042  15.694346  8.617006  2.317738  3.147699  4.057962  6.876872  8.176418  11.437495  6.876872  8.176418  11.437495  9.461615  19.87723  12.493115  170.443212  40.433372  165.885501  -50.304427  6.722363  64.658245  30.529724  -34.971985  50.804574  26.475153  -10.504352  20.274195  129.949577  63.758617  39.273364  -12.919115  -26.629923  -105.856285  79.686329  32.592586  30.268909  3.286958  10.121078  1.920088  2.426698  7.601442  1.3814  
0.0  101.685394  0.0  73.567489  -45.819375  -157.451321  35.300437  -41.742416  -21.974979  3.160698  10.518143  69.196783  -10.651315  -11.562724  -13.614245  -23.257147  22.903187  -30.24425  3.816807  -0.276949  29.609245  25.917363  16.071277  8.667037  2.329282  3.133484  4.136429  6.915039  8.127088  11.652115  6.915039  8.127087  11.652115  9.090947  19.874788  11.79527  170.799199  40.902488  166.48017  -49.737451  6.001227  65.741631  30.509391  -34.738816  50.289177  26.727712  -10.746914  19.900466  131.684779  63.894347  41.180869  -13.016058  -26.55654  -106.206263  79.672824  31.945074  30.474959  3.325811  9.828871  1.402656  2.46546  7.379562  0.995471  
0.0  101.685394  0.0  71.437251  -45.510683  -155.716223  38.667995  -40.426164  -25.242583  3.841463  5.510013  72.165101  -13.647703  -11.246378  -14.246069  -22.667472  22.859933  -29.16421  3.130827  0.261381  29.52128  25.405293  16.217232  8.75557  2.32139  3.106388  4.160407  6.890974  8.052187  11.71329  6.890974  8.052186  11.713289  8.98749  19.903447  11.49948  171.101501  41.238371  167.104548  -49.146335  5.059419  67.173842  30.482815  -34.586189  49.907504  27.038619  -11.035243  19.746052  133.204286  63.8582  43.01267  -13.218984  -26.270047  -106.483772  79.585709  31.316656  30.682318  3.476013  9.533933  1.078901  2.583997  7.156864  0.752651  
0.0  101.685394  0.0  68.989247  -45.019718  -153.733138  41.438687  -38.650466  -27.804219  3.763195  1.110405  74.379825  -16.334084  -11.006117  -14.674335  -22.498456  22.800928  -28.248952  3.150896  0.429562  29.328967  24.240603  16.205306  8.953234  2.272634  3.074465  4.175332  6.753101  7.972542  11.744304  6.7531  7.972541  11.744303  9.00451  19.978637  11.299309  171.144363  41.677764  167.896321  -48.620365  3.758429  68.517887  30.444682  -34.592999  49.657096  27.457482  -11.264411  19.589606  134.347934  63.705398  44.69577  -13.512413  -25.764554  -106.726664  79.256028  30.758285  30.877703  3.655353  9.237158  0.810288  2.723206  6.933005  0.550737  
0.0  101.685394  0.0  66.283646  -44.372264  -151.557882  42.750868  -36.963912  -29.692087  3.846062  -2.222644  76.569534  -18.429184  -10.785777  -14.942313  -23.021838  22.598887  -27.492965  3.828229  0.271289  29.422641  22.628447  16.404251  8.81923  2.211065  3.036536  4.189134  6.578879  7.879046  11.770129  6.578879  7.879047  11.770129  8.976672  20.033395  11.139566  171.135635  41.930768  168.792925  -48.064052  1.997395  70.070165  30.317304  -34.739278  49.553571  27.882279  -11.516695  19.461529  135.353899  63.404894  46.523269  -13.969971  -25.109592  -107.033341  78.713254  30.277862  31.103921  3.77704  8.911809  0.579785  2.818526  6.687737  0.378498  
0.0  101.685394  0.0  63.453058  -43.596599  -149.254434  42.251307  -35.905796  -31.108717  4.814578  -3.983713  79.207897  -19.669693  -10.608646  -15.076328  -24.204396  22.220497  -26.83223  4.573333  0.109256  28.986593  21.446426  16.467065  8.982633  2.151414  2.995479  4.193853  6.408268  7.777672  11.771067  6.408268  7.777672  11.771068  8.844419  20.081147  11.016901  171.093236  42.195127  169.96174  -47.543129  -0.180209  71.544554  30.083656  -35.038601  49.500377  28.263488  -11.826947  19.308721  136.122316  62.920053  48.417255  -14.469276  -24.430242  -107.531405  78.051985  29.934013  31.310273  3.817104  8.560509  0.398385  2.85186  6.423161  0.244417  
0.0  101.685394  0.0  60.50631  -42.648183  -146.848621  40.46272  -35.412537  -32.335373  6.449916  -4.093309  82.256695  -20.140503  -10.466519  -15.088468  -24.952103  22.242646  -25.802702  4.119204  0.013742  28.412495  20.876065  16.605592  9.10596  2.075359  2.948428  4.200205  6.191861  7.662795  11.774134  6.191861  7.662794  11.774135  8.65745  20.2136  10.780487  170.994438  42.362796  171.281244  -46.771656  -2.153579  74.217776  31.208601  -35.188852  47.789189  28.558447  -12.094126  19.112605  136.489597  62.265736  50.082406  -14.888162  -23.812248  -108.132953  77.514861  29.675971  31.502014  3.906023  8.237694  0.320758  2.920098  6.180615  0.187187  
0.0  101.685394  0.0  57.499489  -41.577468  -144.384003  38.139124  -35.276349  -33.369824  8.54751  -2.959403  85.225366  -20.236533  -10.425242  -14.970425  -26.397583  21.704055  -24.875562  4.016582  0.343889  27.619576  20.636898  16.597065  9.209139  1.975952  2.887654  4.18903  5.907081  7.516461  11.725286  5.907081  7.516462  11.725286  8.604298  20.49626  10.56131  170.800464  42.565491  172.775571  -46.402718  -4.746234  75.664899  31.175958  -35.574119  47.493123  28.79187  -12.25809  19.045096  136.366043  61.61755  51.301954  -15.156872  -23.315713  -108.673919  77.166393  29.493292  31.610183  3.898597  7.902406  0.265163  2.915845  5.928777  0.147866  
0.0  101.685394  0.0  54.467363  -40.487293  -141.837873  35.976773  -35.415768  -34.372515  10.877629  -0.678878  87.833376  -19.947209  -10.447077  -14.708411  -27.620409  21.053945  -23.804749  3.57708  0.777233  26.661497  20.395649  16.526365  9.335987  1.880657  2.812369  4.16137  5.629157  7.33124  11.630573  5.629157  7.33124  11.630573  8.668096  20.857291  10.302365  169.886655  43.159454  174.911127  -45.805709  -7.331109  77.927049  32.74996  -35.570926  44.866601  28.904438  -12.30759  18.992556  135.70549  60.958802  52.013725  -15.322231  -22.812321  -109.201078  76.917728  29.359927  31.635709  4.128393  7.619144  0.471385  3.085808  5.717847  0.301292  
0.0  101.685394  0.0  51.306839  -39.261633  -139.314422  34.163093  -35.650078  -35.258449  13.119955  2.572439  89.982379  -19.200688  -10.519587  -14.335432  -28.682829  20.351581  -22.527141  2.8353  1.159338  25.690382  20.003075  16.549672  9.47254  1.795917  2.730017  4.151336  5.380885  7.123099  11.585147  5.380885  7.1231  11.585148  8.465461  21.138764  9.759093  169.207183  43.423966  176.454707  -45.52748  -10.048049  79.045472  33.082931  -36.020222  44.175608  28.839995  -12.315966  18.84756  134.380644  60.24412  52.181943  -15.392756  -22.195043  -109.730031  76.806461  29.263749  31.5787  3.880929  7.104751  0.51183  2.900979  5.332065  0.338071  
